<svg aria-hidden="true" style="position:absolute;width:0;height:0" xmlns="http://www.w3.org/2000/svg" overflow="hidden">
<defs>
<symbol id="icon-heart" viewBox="0 0 34 32">
<path fill="var(--color1, #ff6b08)" d="M17.231 31.705l-2.412-2.412C5.859 21.367.001 16.025.001 9.478.001 4.136 4.136.001 9.478.001c2.929 0 5.858 1.378 7.754 3.618 1.895-2.24 4.825-3.618 7.754-3.618 5.342 0 9.477 4.135 9.477 9.477 0 6.548-5.858 11.889-14.818 19.815l-2.412 2.412z"/>
</symbol>
<symbol id="icon-close" viewBox="0 0 32 32">
<path d="M23.734 10.304L22.23 8.8l-5.963 5.962L10.305 8.8l-1.504 1.504 5.962 5.962-5.962 5.963 1.504 1.504 5.962-5.963 5.963 5.963 1.504-1.504-5.963-5.963 5.963-5.962z"/>
</symbol>
<symbol id="icon-arrow-top" viewBox="0 0 32 32">
<path stroke-linejoin="round" stroke-linecap="round" stroke-miterlimit="4" stroke-width="2" d="M15.87 3l0.26 26M15.87 3l5.040 3.95M15.87 3l-4.96 4.050"></path>
</symbol>
<symbol id="icon-arrow-bottom" viewBox="0 0 32 32">
<path stroke-linejoin="round" stroke-linecap="round" stroke-miterlimit="4" stroke-width="2" d="M16.080 29l-0.26-26M16.080 29l-5.040-3.95M16.080 29l4.96-4.050"></path>
</symbol>
<symbol id="icon-arrowDown" viewBox="0 0 32 32">
<path d="M16 26.88c-6.016 0-10.88-4.864-10.88-10.88s4.864-10.88 10.88-10.88 10.88 4.864 10.88 10.88-4.864 10.88-10.88 10.88zM16 6.4c-5.312 0-9.6 4.288-9.6 9.6s4.288 9.6 9.6 9.6 9.6-4.288 9.6-9.6-4.288-9.6-9.6-9.6z"></path>
<path d="M16 22.016l-6.208-6.208 0.896-0.896 5.312 5.312 5.312-5.312 0.896 0.896z"></path>
<path d="M15.36 10.24h1.28v10.88h-1.28z"></path>
</symbol>
<symbol id="icon-arrowTop" viewBox="0 0 32 32">
<path d="M16 26.88c-6.016 0-10.88-4.864-10.88-10.88s4.864-10.88 10.88-10.88 10.88 4.864 10.88 10.88-4.864 10.88-10.88 10.88zM16 6.4c-5.312 0-9.6 4.288-9.6 9.6s4.288 9.6 9.6 9.6 9.6-4.288 9.6-9.6-4.288-9.6-9.6-9.6z"></path>
<path d="M21.312 17.088l-5.312-5.312-5.312 5.312-0.896-0.896 6.208-6.208 6.208 6.208z"></path>
<path d="M15.36 10.88h1.28v10.88h-1.28z"></path>
</symbol>
</defs>
</svg>
